<?xml version="1.0" encoding="UTF-8" standalone="no"?>
<!-- Created with Inkscape (http://www.inkscape.org/) -->

<svg
   xmlns:dc="http://purl.org/dc/elements/1.1/"
   xmlns:cc="http://creativecommons.org/ns#"
   xmlns:rdf="http://www.w3.org/1999/02/22-rdf-syntax-ns#"
   xmlns:svg="http://www.w3.org/2000/svg"
   xmlns="http://www.w3.org/2000/svg"
   version="1.0"
   width="750"
   height="600"
   id="svg2">
  <defs
     id="defs4" />
  <metadata
     id="metadata7">
    <rdf:RDF>
      <cc:Work
         rdf:about="">
        <dc:format>image/svg+xml</dc:format>
        <dc:type
           rdf:resource="http://purl.org/dc/dcmitype/StillImage" />
        <dc:title></dc:title>
      </cc:Work>
    </rdf:RDF>
  </metadata>
  <g
     id="layer1">
    <g
       transform="translate(-1044.714,-564.7806)"
       id="g1364"
       style="overflow:visible">
      <g
         id="g3">
        <path
           d="m 1044.714,614.7806 c 0,-27.61426 22.3853,-50 50,-50 l 650,0 c 27.6143,0 50,22.38574 50,50 l 0,500 c 0,27.6152 -22.3857,50 -50,50 l -650,0 c -27.6147,0 -50,-22.3848 -50,-50 l 0,-500 0,0 z"
           id="path7" />
        <path
           d=""
           id="path9" />
      </g>
    </g>
    <path
       d="m 285.85121,12.5 178.29754,0 C 615.58531,12.5 737.5,140.725 737.5,300 c 0,159.27499 -121.91469,287.5 -273.35125,287.5 l -178.29754,0 C 134.41464,587.5 12.5,459.27499 12.5,300 12.5,140.725 134.41464,12.5 285.85121,12.5 z"
       id="path3057"
       style="fill:#ffffff;fill-opacity:1;stroke:none" />
    <g
       id="text1320"
       style="font-size:447.76119995px;font-style:normal;font-variant:normal;font-weight:normal;font-stretch:normal;text-align:center;line-height:100%;writing-mode:lr-tb;text-anchor:middle;font-family:Roadgeek 2005 Series C">
      <path
         d="m 178.83668,365.82089 c -1.4e-4,14.92545 -1.49268,28.35827 -4.47761,40.29851 -2.98521,11.94033 -7.46282,21.64182 -13.43284,29.10448 -5.97026,6.86568 -12.53742,11.9403 -19.70149,15.22388 -7.16428,3.28358 -17.01501,4.92537 -29.55224,4.92537 -11.34335,0 -21.194083,-2.68657 -29.552242,-8.0597 -8.358242,-5.37312 -15.820921,-13.28356 -22.38806,-23.73134 -6.268669,-9.2537 -9.402995,-19.10443 -9.402985,-29.55224 l 38.955224,0 c 0.596966,6.56721 2.985023,11.94034 7.164179,16.1194 4.477554,4.17914 9.850684,6.26869 16.119404,6.26866 10.14917,3e-5 17.16409,-3.88056 21.04478,-11.64179 4.179,-8.05965 6.26855,-21.04471 6.26865,-38.95523 -1e-4,-11.9402 -0.59711,-21.79093 -1.79104,-29.55223 -0.89562,-7.76108 -2.53741,-13.88047 -4.92538,-18.35821 -2.38814,-4.47748 -5.82098,-7.6118 -10.2985,-9.40299 -4.17919,-1.7909 -9.40306,-2.68642 -15.67164,-2.68657 l -12.537318,0 0,-38.95522 9.402988,0 c 10.44768,1.8e-4 17.76111,-3.2834 21.9403,-9.85075 4.47752,-6.86547 6.71632,-18.95501 6.71641,-36.26865 -9e-5,-24.77587 -7.76127,-37.16392 -23.28358,-37.16418 -5.97021,2.6e-4 -10.746325,1.79131 -14.328357,5.37313 -3.283633,3.58235 -5.22393,8.50772 -5.820896,14.77612 l -38.955224,0 c 1.194019,-18.5072 7.014909,-32.9848 17.462687,-43.43284 10.746231,-10.44746 24.626814,-15.67133 41.64179,-15.67164 41.49243,3.1e-4 62.23868,25.37342 62.23881,76.11941 -1.3e-4,13.13454 -1.19416,24.62707 -3.58209,34.47761 -2.38819,9.85093 -6.56729,20.00017 -12.53732,30.44776 3.88048,3.88076 6.86555,7.31359 8.95523,10.29851 2.38793,2.68672 4.32823,5.67179 5.82089,8.95522 3.28345,7.16432 5.52226,15.82103 6.71642,25.97015 1.19389,9.85086 1.79091,21.49264 1.79105,34.92537"
         id="path23034"
         style="letter-spacing:-11.15310383;font-family:Roadgeek 2005 Series B;-inkscape-font-specification:Roadgeek 2005 Series B" />
      <path
         d="m 347.14486,299.55224 c -0.29867,8.35835 -0.59718,18.05983 -0.89552,29.10447 -1.6e-4,10.74638 -0.59718,21.9404 -1.79105,33.58209 -0.89568,11.34336 -2.68672,22.53738 -5.37313,33.58209 -2.38821,11.04482 -6.11955,20.89556 -11.19403,29.55224 -5.07477,8.65674 -11.64192,15.67165 -19.70149,21.04478 -8.05982,5.07463 -18.20907,7.61194 -30.44776,7.61194 -12.5374,0 -22.98515,-2.53731 -31.34329,-7.61194 -8.35826,-5.37313 -15.22393,-12.38804 -20.59701,-21.04478 -5.07467,-8.65668 -8.95526,-18.50742 -11.64179,-29.55224 -2.6866,-11.04471 -4.6269,-22.23873 -5.8209,-33.58209 -0.89555,-11.64169 -1.34331,-22.83571 -1.34328,-33.58209 -3e-5,-11.04464 -3e-5,-20.74612 0,-29.10447 -3e-5,-8.95507 0.14923,-18.95506 0.44776,-30 0.29848,-11.04459 1.04475,-22.23861 2.2388,-33.58209 1.49251,-11.64157 3.58206,-22.83559 6.26866,-33.58209 2.98504,-11.04452 7.01489,-20.746 12.08955,-29.10448 5.37309,-8.65643 12.0895,-15.5221 20.14926,-20.59702 8.05962,-5.37283 17.91036,-8.05939 29.55224,-8.0597 12.23869,3.1e-4 22.38794,2.68687 30.44776,8.0597 8.35807,5.07492 15.07448,11.94059 20.14925,20.59702 5.07448,8.35848 8.95507,18.05996 11.64179,29.10448 2.68641,10.7465 4.47745,21.94052 5.37314,33.58209 1.19386,11.34348 1.79088,22.68676 1.79104,34.02985 -1.6e-4,11.04494 -1.6e-4,20.89568 0,29.55224 m -40.29851,0 c -1.2e-4,-3.58194 -1.2e-4,-8.80581 0,-15.67165 0.29839,-7.164 0.29839,-14.92519 0,-23.28358 -0.29863,-8.65652 -0.89564,-17.46248 -1.79104,-26.41791 -0.89564,-8.955 -2.38818,-17.16394 -4.47761,-24.62686 -2.08967,-7.46244 -5.07474,-13.58184 -8.95523,-18.35821 -3.58219,-4.77586 -8.20905,-7.31317 -13.88059,-7.61194 -5.67174,0.29877 -10.44785,2.83608 -14.32836,7.61194 -3.88068,4.77637 -7.015,10.89577 -9.40299,18.35821 -2.38813,7.46292 -4.17917,15.67186 -5.37313,24.62686 -1.1941,8.95543 -1.94036,17.76139 -2.23881,26.41791 -0.29857,8.35839 -0.44782,16.11958 -0.44776,23.28358 -6e-5,6.86584 -6e-5,12.08971 0,15.67165 -6e-5,3.58223 -6e-5,8.95536 0,16.1194 -6e-5,6.8658 0.14919,14.62699 0.44776,23.28358 0.29845,8.35831 1.04471,17.16428 2.23881,26.41791 1.19396,8.9553 2.985,17.16425 5.37313,24.62687 2.38799,7.16423 5.37306,13.13437 8.95523,17.91045 3.88051,4.77615 8.80588,7.16421 14.77612,7.16418 5.67154,3e-5 10.2984,-2.23877 13.88059,-6.71642 3.58198,-4.77607 6.4178,-10.89547 8.50747,-18.35821 2.08943,-7.46262 3.58196,-15.67157 4.47761,-24.62687 1.1939,-8.95513 1.94017,-17.61184 2.2388,-25.97015 0.29839,-8.65659 0.29839,-16.56703 0,-23.73134 -1.2e-4,-7.16404 -1.2e-4,-12.53717 0,-16.1194"
         id="path23036"
         style="letter-spacing:-11.15310383;font-family:Roadgeek 2005 Series B;-inkscape-font-specification:Roadgeek 2005 Series B" />
      <path
         d="m 522.26741,299.55224 c -0.29868,8.35835 -0.59718,18.05983 -0.89553,29.10447 -1.6e-4,10.74638 -0.59717,21.9404 -1.79104,33.58209 -0.89569,11.34336 -2.68673,22.53738 -5.37314,33.58209 -2.38821,11.04482 -6.11955,20.89556 -11.19403,29.55224 -5.07476,8.65674 -11.64192,15.67165 -19.70149,21.04478 -8.05982,5.07463 -18.20906,7.61194 -30.44776,7.61194 -12.5374,0 -22.98515,-2.53731 -31.34328,-7.61194 -8.35827,-5.37313 -15.22393,-12.38804 -20.59702,-21.04478 -5.07466,-8.65668 -8.95526,-18.50742 -11.64179,-29.55224 -2.6866,-11.04471 -4.62689,-22.23873 -5.8209,-33.58209 -0.89554,-11.64169 -1.3433,-22.83571 -1.34328,-33.58209 -2e-5,-11.04464 -2e-5,-20.74612 0,-29.10447 -2e-5,-8.95507 0.14923,-18.95506 0.44776,-30 0.29848,-11.04459 1.04475,-22.23861 2.23881,-33.58209 1.49251,-11.64157 3.58206,-22.83559 6.26865,-33.58209 2.98504,-11.04452 7.01489,-20.746 12.08956,-29.10448 5.37308,-8.65643 12.08949,-15.5221 20.14925,-20.59702 8.05963,-5.37283 17.91036,-8.05939 29.55224,-8.0597 12.2387,3.1e-4 22.38794,2.68687 30.44776,8.0597 8.35808,5.07492 15.07449,11.94059 20.14925,20.59702 5.07448,8.35848 8.95507,18.05996 11.6418,29.10448 2.6864,10.7465 4.47745,21.94052 5.37313,33.58209 1.19387,11.34348 1.79088,22.68676 1.79105,34.02985 -1.7e-4,11.04494 -1.7e-4,20.89568 0,29.55224 m -40.29851,0 c -1.3e-4,-3.58194 -1.3e-4,-8.80581 0,-15.67165 0.29838,-7.164 0.29838,-14.92519 0,-23.28358 -0.29863,-8.65652 -0.89565,-17.46248 -1.79105,-26.41791 -0.89564,-8.955 -2.38818,-17.16394 -4.47761,-24.62686 -2.08967,-7.46244 -5.07474,-13.58184 -8.95522,-18.35821 -3.5822,-4.77586 -8.20906,-7.31317 -13.8806,-7.61194 -5.67173,0.29877 -10.44785,2.83608 -14.32836,7.61194 -3.88067,4.77637 -7.015,10.89577 -9.40298,18.35821 -2.38813,7.46292 -4.17918,15.67186 -5.37314,24.62686 -1.19409,8.95543 -1.94036,17.76139 -2.2388,26.41791 -0.29858,8.35839 -0.44783,16.11958 -0.44777,23.28358 -6e-5,6.86584 -6e-5,12.08971 0,15.67165 -6e-5,3.58223 -6e-5,8.95536 0,16.1194 -6e-5,6.8658 0.14919,14.62699 0.44777,23.28358 0.29844,8.35831 1.04471,17.16428 2.2388,26.41791 1.19396,8.9553 2.98501,17.16425 5.37314,24.62687 2.38798,7.16423 5.37305,13.13437 8.95522,17.91045 3.88051,4.77615 8.80588,7.16421 14.77612,7.16418 5.67154,3e-5 10.2984,-2.23877 13.8806,-6.71642 3.58197,-4.77607 6.41779,-10.89547 8.50746,-18.35821 2.08943,-7.46262 3.58197,-15.67157 4.47761,-24.62687 1.19391,-8.95513 1.94018,-17.61184 2.23881,-25.97015 0.29838,-8.65659 0.29838,-16.56703 0,-23.73134 -1.3e-4,-7.16404 -1.3e-4,-12.53717 0,-16.1194"
         id="path23038"
         style="letter-spacing:-11.15310383;font-family:Roadgeek 2005 Series B;-inkscape-font-specification:Roadgeek 2005 Series B" />
      <path
         d="m 697.38996,299.55224 c -0.29867,8.35835 -0.59717,18.05983 -0.89552,29.10447 -1.6e-4,10.74638 -0.59718,21.9404 -1.79104,33.58209 -0.89569,11.34336 -2.68673,22.53738 -5.37314,33.58209 -2.38821,11.04482 -6.11955,20.89556 -11.19403,29.55224 -5.07476,8.65674 -11.64192,15.67165 -19.70149,21.04478 -8.05982,5.07463 -18.20906,7.61194 -30.44776,7.61194 -12.5374,0 -22.98515,-2.53731 -31.34329,-7.61194 -8.35826,-5.37313 -15.22393,-12.38804 -20.59701,-21.04478 -5.07467,-8.65668 -8.95526,-18.50742 -11.64179,-29.55224 -2.6866,-11.04471 -4.62689,-22.23873 -5.8209,-33.58209 -0.89555,-11.64169 -1.34331,-22.83571 -1.34328,-33.58209 -3e-5,-11.04464 -3e-5,-20.74612 0,-29.10447 -3e-5,-8.95507 0.14923,-18.95506 0.44776,-30 0.29848,-11.04459 1.04475,-22.23861 2.23881,-33.58209 1.4925,-11.64157 3.58205,-22.83559 6.26865,-33.58209 2.98504,-11.04452 7.01489,-20.746 12.08955,-29.10448 5.37309,-8.65643 12.0895,-15.5221 20.14926,-20.59702 8.05963,-5.37283 17.91036,-8.05939 29.55224,-8.0597 12.2387,3.1e-4 22.38794,2.68687 30.44776,8.0597 8.35807,5.07492 15.07449,11.94059 20.14925,20.59702 5.07448,8.35848 8.95507,18.05996 11.64179,29.10448 2.68641,10.7465 4.47746,21.94052 5.37314,33.58209 1.19387,11.34348 1.79088,22.68676 1.79104,34.02985 -1.6e-4,11.04494 -1.6e-4,20.89568 0,29.55224 m -40.2985,0 c -1.3e-4,-3.58194 -1.3e-4,-8.80581 0,-15.67165 0.29838,-7.164 0.29838,-14.92519 0,-23.28358 -0.29864,-8.65652 -0.89565,-17.46248 -1.79105,-26.41791 -0.89564,-8.955 -2.38818,-17.16394 -4.47761,-24.62686 -2.08967,-7.46244 -5.07474,-13.58184 -8.95522,-18.35821 -3.5822,-4.77586 -8.20906,-7.31317 -13.8806,-7.61194 -5.67173,0.29877 -10.44785,2.83608 -14.32836,7.61194 -3.88067,4.77637 -7.015,10.89577 -9.40299,18.35821 -2.38812,7.46292 -4.17917,15.67186 -5.37313,24.62686 -1.19409,8.95543 -1.94036,17.76139 -2.23881,26.41791 -0.29857,8.35839 -0.44782,16.11958 -0.44776,23.28358 -6e-5,6.86584 -6e-5,12.08971 0,15.67165 -6e-5,3.58223 -6e-5,8.95536 0,16.1194 -6e-5,6.8658 0.14919,14.62699 0.44776,23.28358 0.29845,8.35831 1.04472,17.16428 2.23881,26.41791 1.19396,8.9553 2.98501,17.16425 5.37313,24.62687 2.38799,7.16423 5.37306,13.13437 8.95523,17.91045 3.88051,4.77615 8.80588,7.16421 14.77612,7.16418 5.67154,3e-5 10.2984,-2.23877 13.8806,-6.71642 3.58197,-4.77607 6.41779,-10.89547 8.50746,-18.35821 2.08943,-7.46262 3.58197,-15.67157 4.47761,-24.62687 1.19391,-8.95513 1.94017,-17.61184 2.23881,-25.97015 0.29838,-8.65659 0.29838,-16.56703 0,-23.73134 -1.3e-4,-7.16404 -1.3e-4,-12.53717 0,-16.1194"
         id="path23040"
         style="letter-spacing:-11.15310383;font-family:Roadgeek 2005 Series B;-inkscape-font-specification:Roadgeek 2005 Series B" />
    </g>
    <path
       d="m 285.977,13.0114 178.04601,0 c 151.22295,0 272.9656,127.99692 272.9656,286.98861 0,158.99168 -121.74265,286.98859 -272.9656,286.98859 l -178.04601,0 C 134.75405,586.9886 13.01139,458.99169 13.01139,300.00001 13.01139,141.00832 134.75405,13.0114 285.977,13.0114 z"
       id="rect2183"
       style="fill:none;stroke:#000000;stroke-width:1.02277303;stroke-miterlimit:4;stroke-opacity:1;stroke-dasharray:none" />
  </g>
</svg>
